<svg xmlns="http://www.w3.org/2000/svg" width="400" height="400" viewBox="-5 -2 265 310" fill="none">

    <path style="stroke: rgb(255, 0, 0, 1); fill: rgba(0,0,0, .5); stroke-width: 2;"
        transform="rotate(-90 135 157.5) scale(.7) translate(70 95)"
        d="M 174.982 140.558 L 164.944 160.091 L 169.285 159.819 L 169.556 174.469 L 157.348 174.469 L 154.907 180.709 L 161.689 180.438 L 161.417 195.359 L 146.225 196.413 L 127.235 234.666 C 128.033 235.198 118.81 240.444 117.468 239.549 L 93.595 239.277 L 120.996 142.427 L 116.112 140.257 C 116.112 141.134 41.779 139.454 41.779 138.9 L 18.719 174.439 L 0 173.625 L 17.363 119.639 L -0.271 66.466 L 20.075 65.923 L 41.236 101.734 C 41.236 100.098 119.639 98.046 119.639 99.292 L 121.809 95.765 L 93.052 -0.271 L 116.655 -0.271 C 118.7 -1.356 127.877 4.883 127.506 5.968 L 145.411 42.321 L 161.689 42.321 L 161.417 57.513 L 153.55 57.513 L 156.263 62.668 L 169.556 62.939 L 169.556 77.589 L 163.588 77.589 L 174.168 98.207 C 209.102 96.314 248.178 102.605 259.895 118.825 C 255.531 134.136 215.29 141.576 174.982 140.558 Z">
    </path>
    <line x1="127.5" x2="127.5" y1="15" y2="62" stroke="red" stroke-width="2" />
    <polygon points="127.5,17 122,10 133,10" fill="red" />
    <polygon points="127.5,17 122,10 133,10" fill="red" transform="rotate(90 135 157.5) translate(3 14)"/>
    <polygon points="127.5,17 122,10 133,10" fill="red" transform="translate(-15, -10) rotate(180 135 157.5) "/>
    <polygon points="127.5,17 122,10 133,10" fill="red" transform="rotate(-90 135 157.5) translate(12 -2)"/>
</svg>
