
<svg xmlns="http://www.w3.org/2000/svg" width="400" height="400" viewBox="0 0 400 400" fill="none">
    <style>
        .text {
            font-family: 'Roboto', sans-serif;
            font-weight: 10;
            font-size: 40px;
            fill: rgb(90, 90, 90);
            stroke: rgb(90, 90, 90);
            stroke-width: 1.1;
        }

        .darker {
            /* fill: black; */
            stroke: black
        }

        .smaller {
            font-size: 30px;
        }

        .tick {
            stroke: black;
            stroke-width: 2;
        }

        .black {
            fill: rgb(0, 0, 0);
            stroke: rgb(0, 0, 0);
        }

        .thicker {
            stroke-width: 8;
        }
    </style>
    <ellipse class="thicker darker" style="" cx="200" cy="200" rx="175" ry="175" />
    <path class="black"
        transform="rotate(-90 135 157.5) scale(.9) translate(-20 128)"
        d="M 174.982 140.558 L 164.944 160.091 L 169.285 159.819 L 169.556 174.469 L 157.348 174.469 L 154.907 180.709 L 161.689 180.438 L 161.417 195.359 L 146.225 196.413 L 127.235 234.666 C 128.033 235.198 118.81 240.444 117.468 239.549 L 93.595 239.277 L 120.996 142.427 L 116.112 140.257 C 116.112 141.134 41.779 139.454 41.779 138.9 L 18.719 174.439 L 0 173.625 L 17.363 119.639 L -0.271 66.466 L 20.075 65.923 L 41.236 101.734 C 41.236 100.098 119.639 98.046 119.639 99.292 L 121.809 95.765 L 93.052 -0.271 L 116.655 -0.271 C 118.7 -1.356 127.877 4.883 127.506 5.968 L 145.411 42.321 L 161.689 42.321 L 161.417 57.513 L 153.55 57.513 L 156.263 62.668 L 169.556 62.939 L 169.556 77.589 L 163.588 77.589 L 174.168 98.207 C 209.102 96.314 248.178 102.605 259.895 118.825 C 255.531 134.136 215.29 141.576 174.982 140.558 Z">
    </path>



    <line x1="200" x2="200" y1="35" y2="70" class="tick thicker" />
    <line x1="200" x2="200" y1="35" y2="70" class="tick thicker" transform="rotate(90 200 200)"/>
    <line x1="200" x2="200" y1="35" y2="70" class="tick thicker" transform="rotate(180 200 200)"/>
    <line x1="200" x2="200" y1="35" y2="70" class="tick thicker" transform="rotate(270 200 200)"/>

    <line x1="200" x2="200" y1="35" y2="60" class="tick" transform="rotate(30 200 200)"/>
    <line x1="200" x2="200" y1="35" y2="60" class="tick" transform="rotate(60 200 200)"/>
    <line x1="200" x2="200" y1="35" y2="60" class="tick" transform="rotate(120 200 200)"/>
    <line x1="200" x2="200" y1="35" y2="60" class="tick" transform="rotate(150 200 200)"/>
    <line x1="200" x2="200" y1="35" y2="60" class="tick" transform="rotate(210 200 200)"/>
    <line x1="200" x2="200" y1="35" y2="60" class="tick" transform="rotate(240 200 200)"/>
    <line x1="200" x2="200" y1="35" y2="60" class="tick" transform="rotate(300 200 200)"/>
    <line x1="200" x2="200" y1="35" y2="60" class="tick" transform="rotate(330 200 200)"/>
    

 



</svg>
