<?xml version="1.0" encoding="UTF-8" standalone="no"?>
<!-- Created with Inkscape (http://www.inkscape.org/) -->

<svg
   width="400mm"
   height="400mm"
   viewBox="0 0 400 400"
   version="1.1"
   id="svg1"
   xml:space="preserve"
   inkscape:version="1.3.2 (091e20ef0f, 2023-11-25)"
   sodipodi:docname="gluxe-front.svg"
   xmlns:inkscape="http://www.inkscape.org/namespaces/inkscape"
   xmlns:sodipodi="http://sodipodi.sourceforge.net/DTD/sodipodi-0.dtd"
   xmlns="http://www.w3.org/2000/svg"
   xmlns:svg="http://www.w3.org/2000/svg"><sodipodi:namedview
     id="namedview1"
     pagecolor="#ffffff"
     bordercolor="#000000"
     borderopacity="0.25"
     inkscape:showpageshadow="2"
     inkscape:pageopacity="0.0"
     inkscape:pagecheckerboard="0"
     inkscape:deskcolor="#d1d1d1"
     inkscape:document-units="mm"
     inkscape:zoom="0.76051544"
     inkscape:cx="744.88954"
     inkscape:cy="715.9618"
     inkscape:window-width="1844"
     inkscape:window-height="1011"
     inkscape:window-x="76"
     inkscape:window-y="32"
     inkscape:window-maximized="1"
     inkscape:current-layer="layer1" /><defs
     id="defs1" /><g
     inkscape:label="Layer 1"
     inkscape:groupmode="layer"
     id="layer1"
     transform="matrix(0.86028097,0,0,0.86028097,28.742073,49.546796)"><g
       id="g8"
       inkscape:label="Cockpit window"
       transform="translate(-0.69738197)"
       style="display:inline"><path
         style="fill:none;stroke:#000000;stroke-width:0.464;stroke-dasharray:none;stroke-opacity:1"
         d="m 198.83973,186.67772 0.34223,6.5953"
         id="path6" /><path
         style="fill:none;stroke:#000000;stroke-width:0.464;stroke-dasharray:none;stroke-opacity:1"
         d="m 208.99407,186.20069 1.37224,6.43934"
         id="path7" /><path
         style="fill:none;stroke:#000000;stroke-width:0.464;stroke-dasharray:none;stroke-opacity:1"
         d="m 189.21242,186.23006 -1.10046,6.50946"
         id="path5" /><path
         style="fill:none;stroke:#000000;stroke-width:0.464;stroke-dasharray:none;stroke-opacity:1"
         d="m 212.01727,185.79159 5.28132,9.49547"
         id="path8" /><path
         style="fill:none;stroke:#000000;stroke-width:0.464;stroke-dasharray:none;stroke-opacity:1"
         d="m 181.21023,194.75751 4.92613,-8.99459 -0.15161,0.33379 0.2547,-0.28319"
         id="path4" /><path
         style="fill:none;stroke:#000000;stroke-width:0.464;stroke-dasharray:none;stroke-opacity:1"
         d="m 184.08856,185.16282 1.88533,0.4051 2.97263,0.53391 9.99994,0.7234 9.77969,-0.66695 3.21208,-0.38738 2.33341,-0.55421 5.30482,8.43483 -2.17843,1.67428 -7.08844,-2.64538 c -4.77807,-0.2413 -8.31916,-0.0106 -10.65447,0.68012 -4.09536,-0.68217 -7.87477,-0.81382 -11.48574,-0.65197 l -6.77852,2.4662 -2.66433,-1.63442 z"
         id="path3"
         sodipodi:nodetypes="ccccccccccccccc" /></g><path
       d="m 105.75944,183.22861 -4.83899,0.18242 0.98909,8.21345 c -3.178651,1.13264 -4.056918,2.34632 -5.033799,3.55637 -0.742277,1.61797 -1.723289,2.70626 -1.490349,6.48591 0.214832,2.11286 0.554376,4.09877 1.508952,5.45703 1.043909,1.65596 2.025208,3.58936 4.756816,4.81469 1.96709,0.23287 3.91405,0.67846 5.98671,-0.2098 2.07762,-0.98996 3.7656,-2.45939 4.639,-4.93045 0.6448,-2.38106 0.72825,-4.06809 0.92294,-5.89266 0.11789,-3.95864 -1.26721,-4.84285 -2.28255,-6.48281 -1.049,-1.3808 -2.71698,-2.31646 -4.97592,-2.82774 z m -1.42731,10.70322 a 7.1509151,7.2951846 0 0 1 7.15099,7.29516 7.1509151,7.2951846 0 0 1 -7.15099,7.29517 7.1509151,7.2951846 0 0 1 -7.150465,-7.29517 7.1509151,7.2951846 0 0 1 7.150465,-7.29516 z"
       style="display:inline;fill:none;stroke:#000000;stroke-width:0.464"
       id="path47"
       inkscape:label="Engine4" /><path
       d="m 218.08333,213.45622 a 25.160572,25.106951 0 0 1 -19.7652,9.66556 25.160572,25.106951 0 0 1 -18.87482,-8.52558 c 0.85544,5.34722 2.71178,10.4906 7.49722,10.35131 l 11.55795,-0.85163 12.12484,0.9586 c 4.61916,-0.0648 7.10904,-5.44666 7.46001,-11.59826 z"
       style="display:inline;fill:none;stroke:#000000;stroke-width:0.464"
       id="path37"
       inkscape:label="Gear" /><path
       d="m 223.36518,195.69503 a 25.160572,25.106951 0 0 1 0.11369,2.31976 25.160572,25.106951 0 0 1 -1.14774,7.41091 l -0.046,0.75965 6.39858,0.29042 c 2.54985,0.39405 3.25864,-0.85587 3.83025,-2.22829 0.35868,-1.17557 0.40843,-3.17066 0.48783,-5.08703 -0.1809,-1.10834 -0.26526,-2.24053 -2.67271,-2.80086 z"
       style="display:inline;fill:none;stroke:#000000;stroke-width:0.464"
       id="path39"
       inkscape:label="Pod" /><ellipse
       style="fill:none;stroke:#000000;stroke-width:0.487448;stroke-dasharray:none;stroke-opacity:1"
       id="path11"
       cx="198.27615"
       cy="207.95334"
       rx="9.0950155"
       ry="8.0765371"
       inkscape:label="Nose" /><path
       d="m 142.32258,181.84988 -4.84208,0.18294 0.99374,8.25324 c -3.17866,1.13264 -4.05744,2.34581 -5.03432,3.55585 -0.74228,1.61797 -1.72329,2.70678 -1.49035,6.48643 0.21483,2.11286 0.55437,4.09826 1.50895,5.45652 1.04391,1.65595 2.02573,3.58935 4.75733,4.81469 1.96709,0.23287 3.91405,0.67845 5.98672,-0.20981 2.07762,-0.98996 3.76559,-2.45939 4.63899,-4.93045 0.6448,-2.38105 0.72774,-4.06757 0.92243,-5.89214 0.11789,-3.95864 -1.2667,-4.84285 -2.28204,-6.48281 -1.049,-1.3808 -2.71749,-2.31697 -4.97644,-2.82825 z m -1.42575,10.74302 a 7.1509151,7.2951846 0 0 1 7.15098,7.29516 7.1509151,7.2951846 0 0 1 -7.15098,7.29516 7.1509151,7.2951846 0 0 1 -7.15099,-7.29516 7.1509151,7.2951846 0 0 1 7.15099,-7.29516 z"
       style="display:inline;fill:none;stroke:#000000;stroke-width:0.464"
       id="path51"
       inkscape:label="Engine3" /><path
       d="m 258.97024,181.77237 -4.85138,-0.18552 0.14211,8.36228 c -3.27815,0.80029 -4.27633,1.91713 -5.37229,3.02049 -0.90447,1.5332 -1.99234,2.51525 -2.1487,6.29884 -0.003,2.12375 0.13095,4.13403 0.94103,5.58312 0.86837,1.75439 1.6461,3.77839 4.23746,5.27771 1.93279,0.43361 3.82399,1.07642 5.9769,0.40566 2.16828,-0.77141 3.99812,-2.05983 5.12062,-4.42815 0.88586,-2.30227 1.14139,-3.97111 1.52238,-5.76606 0.52372,-3.92561 -0.76244,-4.94777 -1.60403,-6.68331 -0.90169,-1.48121 -2.46515,-2.58332 -4.65967,-3.32383 z m -2.53628,10.72027 a 7.1509151,7.2951846 5.8931044 0 1 6.36447,7.99125 7.1509151,7.2951846 5.8931044 0 1 -7.86205,6.52208 7.1509151,7.2951846 5.8931044 0 1 -6.36447,-7.99073 7.1509151,7.2951846 5.8931044 0 1 7.86205,-6.5226 z"
       style="display:inline;fill:none;stroke:#000000;stroke-width:0.464"
       id="path55"
       inkscape:label="Engine2" /><path
       d="m 295.53338,183.16918 -4.8457,-0.185 0.14108,8.31164 c -3.27815,0.80029 -4.27632,1.91713 -5.37228,3.02048 -0.90448,1.53321 -1.99235,2.51526 -2.14871,6.29884 -0.003,2.12375 0.13095,4.13352 0.94103,5.58261 0.86837,1.75439 1.6461,3.77839 4.23747,5.27771 1.93278,0.43361 3.82398,1.07694 5.97689,0.40618 2.16828,-0.77141 3.99813,-2.05983 5.12062,-4.42815 0.88586,-2.30227 1.14139,-3.97163 1.52239,-5.76658 0.52371,-3.92561 -0.76296,-4.94725 -1.60455,-6.68279 -0.90169,-1.48121 -2.46515,-2.58332 -4.65967,-3.32383 z m -2.53163,10.67015 a 7.1509151,7.2951846 5.8931044 0 1 6.36447,7.99073 7.1509151,7.2951846 5.8931044 0 1 -7.86205,6.5226 7.1509151,7.2951846 5.8931044 0 1 -6.36447,-7.99125 7.1509151,7.2951846 5.8931044 0 1 7.86205,-6.52208 z"
       style="display:inline;fill:none;stroke:#000000;stroke-width:0.464"
       id="path59"
       inkscape:label="Engine1" /><g
       id="g23"
       inkscape:label="PortPylon"><path
         id="path23-2"
         style="display:inline;fill:none;stroke:#000000;stroke-width:0.464;stroke-dasharray:none;stroke-opacity:1"
         d="m 314.14155,196.3906 c -0.42799,7e-5 -0.82656,0.20218 -1.05782,0.5364 l -1.83784,-0.0473 -0.0614,1.16861 1.81863,0.003 c 0.20648,0.4105 0.65029,0.673 1.13843,0.67334 0.69457,-7e-5 1.25753,-0.52276 1.25729,-1.16737 -7e-5,-0.64441 -0.56294,-1.16678 -1.25729,-1.16685 z"
         sodipodi:nodetypes="cccccccc" /><path
         id="path23-2-3"
         style="display:inline;fill:none;stroke:#000000;stroke-width:0.464;stroke-dasharray:none;stroke-opacity:1"
         d="m 314.45316,188.88821 a 1.2574189,1.1669695 0 0 0 -1.03663,0.50953 l -1.7787,-0.0491 -0.0289,1.14101 1.70015,0.0501 a 1.2574189,1.1669695 0 0 0 1.14412,0.68265 1.2574189,1.1669695 0 0 0 1.25729,-1.16737 1.2574189,1.1669695 0 0 0 -1.25729,-1.16686 z" /><path
         id="path19"
         style="display:inline;fill:none;stroke:#000000;stroke-width:0.464;stroke-dasharray:none;stroke-opacity:1"
         d="m 306.54615,196.11671 a 1.2574189,1.1669695 0 0 0 -1.25781,1.16686 1.2574189,1.1669695 0 0 0 1.25781,1.16685 1.2574189,1.1669695 0 0 0 1.0759,-0.56689 l 1.66656,-0.002 0.0507,-1.03611 -1.62936,-0.004 a 1.2574189,1.1669695 0 0 0 -1.16375,-0.72502 z" /><path
         d="m 309.99348,183.71747 -0.9741,19.35954 a 1.2574189,1.1669695 0 0 1 0.88212,-0.35605 1.2574189,1.1669695 0 0 1 1.01957,0.48576 l 0.93948,-19.38125 z"
         style="display:inline;fill:none;stroke:#000000;stroke-width:0.464"
         id="path61" /><path
         id="path20"
         style="display:inline;fill:none;stroke:#000000;stroke-width:0.464;stroke-dasharray:none;stroke-opacity:1"
         d="m 306.82933,188.51924 c -0.69435,7e-5 -1.25721,0.52245 -1.25728,1.16686 7e-5,0.6444 0.56293,1.16678 1.25728,1.16685 0.37727,-6.6e-4 0.73428,-0.15849 0.97255,-0.42995 l 1.84537,0.0506 0.0596,-1.12707 -1.70554,-0.0816 c -0.18738,-0.44924 -0.65295,-0.74546 -1.17202,-0.74569 z"
         sodipodi:nodetypes="cccccccc" /><ellipse
         style="display:inline;fill:none;stroke:#000000;stroke-width:0.464;stroke-dasharray:none;stroke-opacity:1"
         id="ellipse61"
         cx="309.90158"
         cy="203.88817"
         rx="1.2574189"
         ry="1.1669695" /></g><path
       style="display:inline;fill:none;stroke:#000000;stroke-width:0.464;stroke-dasharray:none;stroke-opacity:1"
       d="m 66.310403,184.6559 0.06492,4.28731 c 1.200719,0.84469 2.432965,1.48654 3.990636,0.0345 l -0.135176,-4.44283 z"
       id="path29"
       sodipodi:nodetypes="ccccc"
       inkscape:label="StbWingFairing" /><path
       style="display:inline;fill:none;stroke:#000000;stroke-width:0.464;stroke-dasharray:none;stroke-opacity:1"
       d="m 326.26583,184.38791 -0.22709,4.28179 c 1.14044,0.92446 2.32614,1.6487 3.97903,0.30606 l 0.16759,-4.44173 z"
       id="path30"
       sodipodi:nodetypes="ccccc"
       inkscape:label="StbWingFairing" /><path
       d="m 198.29332,113.02566 c -1.61348,0.0679 -3.25614,1.7734 -3.19463,5.06894 l -1.94614,52.34203 4.80591,-0.35812 5.44204,0.40566 -2.08876,-52.70273 c 0.17924,-3.25406 -1.40494,-4.82367 -3.01842,-4.75578 z"
       style="display:inline;fill:none;stroke:#000000;stroke-width:0.464"
       id="path43"
       inkscape:label="TailVert" /><path
       style="fill:none;stroke:#000000;stroke-width:0.464;stroke-dasharray:none;stroke-opacity:1"
       d="m 194.99233,121.76604 -74.18349,-1.52237 c -3.35956,-0.84814 -0.97782,-2.77523 0.007,-2.525 l 74.49694,-0.78838 z"
       id="path32"
       sodipodi:nodetypes="ccccc"
       inkscape:label="TailHorizontalStb" /><path
       style="fill:none;stroke:#000000;stroke-width:0.464;stroke-dasharray:none;stroke-opacity:1"
       d="m 201.55274,121.6966 74.18349,-1.52237 c 3.35956,-0.84814 0.97782,-2.77523 -0.007,-2.525 l -74.49694,-0.78838 z"
       id="path33"
       sodipodi:nodetypes="ccccc"
       inkscape:label="TailHorizontalPort" /><ellipse
       style="display:inline;fill:none;stroke:#000000;stroke-width:0.464;stroke-dasharray:none;stroke-opacity:1"
       id="ellipse40"
       cx="198.31821"
       cy="198.01479"
       rx="25.160572"
       ry="25.106951"
       inkscape:label="Fuselage" /><path
       d="m 197.95846,170.07851 -183.965516,13.70407 -0.218591,2.91352 161.069237,-6.07198 3.69177,2.06189 a 25.160572,25.106951 0 0 1 19.78277,-9.77822 25.160572,25.106951 0 0 1 19.34559,9.08989 l 2.57245,-1.70533 162.23092,6.19859 0.0222,-2.66288 z"
       style="display:inline;fill:none;stroke:#000000;stroke-width:0.464"
       id="path57"
       inkscape:label="Wings" /><g
       id="g67"
       inkscape:label="StbPylon"
       transform="rotate(-4.6362825,200.88713,2965.6286)"><path
         id="path63"
         style="display:inline;fill:none;stroke:#000000;stroke-width:0.464;stroke-dasharray:none;stroke-opacity:1"
         d="m 314.14155,196.3906 c -0.42799,7e-5 -0.82656,0.20218 -1.05782,0.5364 l -1.83784,-0.0473 -0.0614,1.16861 1.81863,0.003 c 0.20648,0.4105 0.65029,0.673 1.13843,0.67334 0.69457,-7e-5 1.25753,-0.52276 1.25729,-1.16737 -7e-5,-0.64441 -0.56294,-1.16678 -1.25729,-1.16685 z"
         sodipodi:nodetypes="cccccccc" /><path
         id="path64"
         style="display:inline;fill:none;stroke:#000000;stroke-width:0.464;stroke-dasharray:none;stroke-opacity:1"
         d="m 314.45316,188.88821 a 1.2574189,1.1669695 0 0 0 -1.03663,0.50953 l -1.7787,-0.0491 -0.0289,1.14101 1.70015,0.0501 a 1.2574189,1.1669695 0 0 0 1.14412,0.68265 1.2574189,1.1669695 0 0 0 1.25729,-1.16737 1.2574189,1.1669695 0 0 0 -1.25729,-1.16686 z" /><path
         id="path65"
         style="display:inline;fill:none;stroke:#000000;stroke-width:0.464;stroke-dasharray:none;stroke-opacity:1"
         d="m 306.54615,196.11671 a 1.2574189,1.1669695 0 0 0 -1.25781,1.16686 1.2574189,1.1669695 0 0 0 1.25781,1.16685 1.2574189,1.1669695 0 0 0 1.0759,-0.56689 l 1.66656,-0.002 0.0507,-1.03611 -1.62936,-0.004 a 1.2574189,1.1669695 0 0 0 -1.16375,-0.72502 z" /><path
         d="m 309.99348,183.71747 -0.9741,19.35954 a 1.2574189,1.1669695 0 0 1 0.88212,-0.35605 1.2574189,1.1669695 0 0 1 1.01957,0.48576 l 0.93948,-19.38125 z"
         style="display:inline;fill:none;stroke:#000000;stroke-width:0.464"
         id="path66" /><path
         id="path67"
         style="display:inline;fill:none;stroke:#000000;stroke-width:0.464;stroke-dasharray:none;stroke-opacity:1"
         d="m 306.82933,188.51924 c -0.69435,7e-5 -1.25721,0.52245 -1.25728,1.16686 7e-5,0.6444 0.56293,1.16678 1.25728,1.16685 0.37727,-6.6e-4 0.73428,-0.15849 0.97255,-0.42995 l 1.84537,0.0506 0.0596,-1.12707 -1.70554,-0.0816 c -0.18738,-0.44924 -0.65295,-0.74546 -1.17202,-0.74569 z"
         sodipodi:nodetypes="cccccccc" /><ellipse
         style="display:inline;fill:none;stroke:#000000;stroke-width:0.464;stroke-dasharray:none;stroke-opacity:1"
         id="ellipse67"
         cx="309.90158"
         cy="203.88817"
         rx="1.2574189"
         ry="1.1669695" /></g></g></svg>