<svg width="32px" height="32px" viewBox="09 08 30 30" xmlns="http://www.w3.org/2000/svg" xmlns:xlink="http://www.w3.org/1999/xlink" version="1.1" baseProfile="full" enable-background="new 0 0 76.00 76.00" xml:space="preserve">
  <path fill="#000000" fill-opacity="1" stroke-width="0.128" stroke-linejoin="round" d="M24.288 31.36a2.56 2.56 0 1 1 1.32 -4.752l3.8 2.192 -3.8 2.192a2.544 2.544 0 0 1 -1.32 0.368Zm0.032 -16.64a12.8 12.8 0 0 1 12.8 12.8v1.92h-6.4v-1.92a6.4 6.4 0 1 0 -12.8 0v1.92h-6.4v-1.92a12.8 12.8 0 0 1 12.8 -12.8Zm10.88 12.8a10.8 10.8 0 0 0 -2.744 -7.216l-1.816 1.816a8.288 8.288 0 0 1 2 5.4h2.56ZM17.096 19.384l1.816 1.816a8.288 8.288 0 0 1 4.752 -1.968v-2.568a10.832 10.832 0 0 0 -6.568 2.72Zm12.64 1.824 1.816 -1.816a10.832 10.832 0 0 0 -6.608 -2.736v2.568a8.288 8.288 0 0 1 4.792 1.984ZM13.44 27.52H16c0 -2.072 0.752 -3.96 2.008 -5.416l-1.816 -1.816a10.84 10.84 0 0 0 -2.752 7.232Z"/>
</svg>