<?xml version="1.0" encoding="UTF-8" standalone="no"?>
<!-- Created with Inkscape (http://www.inkscape.org/) -->

<svg
   width="400"
   height="200"
   viewBox="0 0 400 200"
   version="1.1"
   id="svg1"
   xml:space="preserve"
   inkscape:version="1.3.2 (091e20ef0f, 2023-11-25)"
   sodipodi:docname="gluxe-side.svg"
   xmlns:inkscape="http://www.inkscape.org/namespaces/inkscape"
   xmlns:sodipodi="http://sodipodi.sourceforge.net/DTD/sodipodi-0.dtd"
   xmlns="http://www.w3.org/2000/svg"
   xmlns:svg="http://www.w3.org/2000/svg"><sodipodi:namedview
     id="namedview1"
     pagecolor="#ffffff"
     bordercolor="#000000"
     borderopacity="0.25"
     inkscape:showpageshadow="2"
     inkscape:pageopacity="0.0"
     inkscape:pagecheckerboard="0"
     inkscape:deskcolor="#d1d1d1"
     inkscape:document-units="mm"
     inkscape:zoom="0.72426347"
     inkscape:cx="798.74248"
     inkscape:cy="280.9751"
     inkscape:window-width="1844"
     inkscape:window-height="1011"
     inkscape:window-x="76"
     inkscape:window-y="32"
     inkscape:window-maximized="1"
     inkscape:current-layer="svg1" /><defs
     id="defs1" /><g
     inkscape:groupmode="layer"
     id="layer2"
     inkscape:label="Layer 2"
     style="display:inline"><path
       style="display:inline;fill:none;stroke:#000000;stroke-width:0.464"
       d="m 253.60466,120.58962 13.92677,0.0797 c 0.62766,-0.0382 1.17297,0.0406 1.24221,0.79603 l 0.0607,6.67019 c -0.1836,0.57726 -0.58241,0.94142 -1.25034,1.03909 l -13.94311,-0.178 c -0.90495,0.0172 -1.09179,-0.47129 -1.16211,-1.04179 l 0.0134,-6.27531 c 0.0412,-0.66295 0.32065,-1.10929 1.11248,-1.08991 z"
       id="path89"
       sodipodi:nodetypes="ccccccccc"
       inkscape:label="FwdHold" /><path
       d="m 232.60066,86.690401 c -5.3726,0.283859 -10.06438,0.528029 -10.82466,0.543119 -13.14104,0.594829 -19.17233,1.4466 -25.79636,2.276864 l -0.35863,0.320394 63.45194,-0.167432 -4.12275,-0.983402 c -2.98563,-0.826406 -8.42245,-1.338183 -14.04617,-1.825729 z"
       style="display:inline;fill:none;stroke:#000000;stroke-width:0.464"
       id="path12"
       inkscape:label="rearLump" /><path
       d="m 275.21666,88.048458 c -2.05714,-0.0222 -4.08593,0.06442 -6.0849,0.264066 -2.27594,0.08552 -3.51557,0.691644 -4.67775,1.336869 l 19.07687,-0.05064 c -0.55787,-0.409646 -1.07054,-0.827044 -2.05827,-1.162202 -2.11295,-0.235041 -4.1988,-0.365886 -6.25595,-0.38809 z"
       style="display:inline;fill:none;stroke:#000000;stroke-width:0.464"
       id="path18"
       inkscape:label="forwardLump" /><g
       id="g88"
       inkscape:label="APU"
       transform="translate(9.255118,10.161222)"><path
         style="display:inline;fill:none;stroke:#000000;stroke-width:0.464"
         d="m 74.798887,86.660211 c -1.344748,0.310098 -0.81647,0.751082 -1.063312,1.137901 0.148589,0.716509 0.601576,0.994844 1.227674,1.023986 0.64822,-0.06729 1.206165,-0.253882 1.299366,-1.054614 -0.05317,-0.668495 -0.575568,-1.013837 -1.463728,-1.107273 z"
         id="path88"
         sodipodi:nodetypes="ccccc" /><path
         style="display:inline;fill:none;stroke:#000000;stroke-width:0.464"
         d="m 60.14146,85.527916 2.609866,4.899922 16.213106,0.445262 -1.59747,-5.744588 z"
         id="path87" /></g><path
       d="m 311.21137,89.525887 -120.25313,0.317293 -61.13787,0.476457 -56.281837,3.086633 -30.650326,2.359546 -0.17725,8.832534 c 0.261632,0.92292 0.03363,1.85539 3.635437,2.71612 l 70.870616,18.97971 c 5.98593,1.04332 9.23281,1.6574 20.33622,3.50211 5.27448,0.9579 10.66449,1.42937 16.16956,1.41439 l 37.46283,-0.002 c -0.43234,-0.11992 -0.9027,-0.23732 -1.25522,-0.36277 -2.31158,-0.72529 -3.83269,-1.38423 -5.29322,-2.03812 -0.31907,-0.22856 -0.43562,-0.50549 -0.0419,-0.9033 4.41726,-2.53563 9.60334,-4.06495 15.32413,-4.89376 5.23214,-0.76591 10.27829,-0.97415 15.22853,-0.89555 4.6955,0.35222 7.8667,1.2526 10.60865,2.30735 2.25698,0.70036 4.03317,1.6997 5.14594,3.11195 0.38257,0.59428 0.10408,1.08351 -0.17363,1.46555 -0.81567,0.74728 -0.85286,0.78166 -3.09077,1.63607 -0.9182,0.22636 -1.93969,0.37605 -2.90008,0.57103 l 102.30745,-0.005 c 8.72756,-0.57238 17.63563,-0.62603 25.98756,-2.27997 8.1339,-1.48411 15.03499,-3.59186 21.98109,-5.6875 1.78358,-0.89129 3.78377,-1.44466 3.9672,-2.86443 -0.25812,-2.01284 -1.22521,-2.72213 -2.53938,-3.66954 -6.25734,-3.5991 -12.47384,-7.22489 -19.82618,-10.09913 C 343.72052,95.001659 340.9287,94.395156 334.66312,92.520769 327.82671,90.351226 319.45869,90.010083 311.21133,89.525087 Z"
       style="display:inline;fill:none;stroke:#000000;stroke-width:0.464"
       id="path38"
       inkscape:label="Fuselage" /><path
       d="m 51.875256,39.372359 -11.704712,0.179317 c -7.862387,0.248566 -15.285941,1.188512 -22.597588,2.304769 l 25.313701,53.979651 0.0016,-0.07028 30.650326,-2.359546 56.281837,-3.086633 61.13787,-0.476457 4.66277,-0.0124 0.35863,-0.320394 c 6.2953,-0.789061 12.24442,-1.590818 24.0807,-2.179712 l -15.83211,-0.452686 -67.02433,0.485759 -23.82542,0.47904 c -2.51522,-0.05145 -8.59503,-2.166026 -12.84681,-4.380613 -4.618872,-2.325947 -9.049975,-4.966127 -12.550141,-9.164815 L 68.998241,51.120479 61.60076,42.692053 c -3.619373,-3.615444 -5.405393,-3.060258 -9.725504,-3.319694 z"
       style="display:inline;fill:none;stroke:#000000;stroke-width:0.464"
       id="path21"
       inkscape:label="Tail"
       sodipodi:nodetypes="ccccccccccccccccccc" /><path
       d="M 42.588484,95.199959 58.77871,92.819226 34.438594,50.424397 22.102396,51.515804 Z"
       style="display:inline;fill:none;stroke:#000000;stroke-width:0.464"
       id="path28"
       inkscape:label="rudder" /><path
       style="fill:none;stroke:#000000;stroke-width:0.464"
       d="m 58.573001,92.698158 5.508183,7.273047 5.316014,0.09207 0.02666,0.81447 -5.225552,-0.0132 -0.139494,4.07682 5.396653,0.0408 -0.07913,1.24948 -5.155904,-0.0463 -0.07415,5.85022"
       id="path29"
       inkscape:label="airBrake" /><path
       d="m 368.54998,112.2816 -0.0646,10.72286 c -0.0539,0.66286 0.17182,1.33505 0.46302,1.99885 2.02075,-0.58962 4.06799,-1.16512 6.06578,-1.76785 1.78358,-0.89129 3.78377,-1.44466 3.9672,-2.86443 -0.25812,-2.01284 -1.22521,-2.72213 -2.53938,-3.66954 -2.5985,-1.49461 -5.22333,-2.97175 -7.89203,-4.41989 z"
       style="display:inline;fill:none;stroke:#000000;stroke-width:0.464"
       id="path34"
       inkscape:label="Nose" /><path
       style="fill:none;stroke:#000000;stroke-width:0.464"
       d="m 368.29052,122.82842 -13.85435,4.86356 -10.09401,1.1664 -0.003,1.3309"
       id="path35"
       inkscape:label="NoseGear" /><path
       style="fill:none;stroke:#000000;stroke-width:0.464"
       d="m 184.59545,127.90501 c 4.41726,-2.53563 9.60314,-4.06486 15.32394,-4.89367 5.23214,-0.76591 10.27822,-0.97443 15.22846,-0.89583 4.69551,0.35222 7.86665,1.25263 10.60861,2.30738 2.25698,0.70036 4.03331,1.69976 5.14608,3.11202 0.38257,0.59428 0.10427,1.08346 -0.17344,1.4655 -0.81567,0.74728 -0.85283,0.78196 -3.09074,1.63637 -4.10375,1.01168 -8.60345,1.72879 -13.72594,1.98255 l -10.58995,0.24859 c -7.17743,-0.48583 -11.07923,-1.1987 -13.39201,-2.02171 -2.31158,-0.72529 -3.83276,-1.38426 -5.29329,-2.03815 -0.31907,-0.22856 -0.43546,-0.50524 -0.0417,-0.90305 z"
       id="path37"
       sodipodi:nodetypes="cccccccccccc"
       inkscape:label="Gear" /><path
       style="fill:none;stroke:#000000;stroke-width:0.464"
       d="m 314.37587,98.916666 0.10425,16.613164 c -0.12869,1.13703 0.4442,1.40524 1.35932,1.24963 l 7.51573,0.0475 c 1.18129,0.13493 1.4951,-0.61879 1.59903,-1.58751 l -0.12089,-16.05594 c 0.21477,-1.447249 -0.65943,-1.342543 -1.45137,-1.35508 l -7.50085,0.05917 c -1.55493,-0.186386 -1.5226,0.425097 -1.50522,1.029066 z"
       id="path40"
       sodipodi:nodetypes="ccccccccc"
       inkscape:label="frontDoor" /><path
       style="fill:none;stroke:#000000;stroke-width:0.464"
       d="m 107.00347,99.275492 0.10425,16.613168 c -0.12869,1.13703 0.4442,1.40524 1.35932,1.24963 l 7.51573,0.0475 c 1.18129,0.13493 1.4951,-0.61879 1.59903,-1.58751 l -0.12089,-16.055944 c 0.21477,-1.447249 -0.65943,-1.342543 -1.45137,-1.35508 l -7.50085,0.05917 c -1.55493,-0.186386 -1.5226,0.425097 -1.50522,1.029066 z"
       id="path41"
       sodipodi:nodetypes="ccccccccc"
       inkscape:label="rearDoor" /><path
       d="m 311.21137,89.524853 v 0.001 l -120.25313,0.317293 -61.13787,0.476457 -56.281837,3.086633 -30.650326,2.359546 -0.17725,8.832538 c 0.261632,0.92291 0.03363,1.85539 3.635437,2.71611 l 70.870616,18.97972 c 5.98592,1.04332 9.23282,1.65741 20.33622,3.50211 5.27448,0.9579 10.66449,1.42937 16.16956,1.41439 l 37.46283,-0.002 c -0.43234,-0.11992 -0.9027,-0.23732 -1.25522,-0.36277 -2.31158,-0.72529 -3.83269,-1.38423 -5.29322,-2.03812 -0.31907,-0.22856 -0.43558,-0.50549 -0.0419,-0.9033 4.41726,-2.53563 9.60335,-4.06495 15.32413,-4.89376 5.23214,-0.76591 10.27829,-0.97415 15.22853,-0.89555 4.69549,0.35222 7.86671,1.2526 10.60865,2.30735 2.25698,0.70036 4.03317,1.69971 5.14594,3.11196 0.38257,0.59428 0.10408,1.0835 -0.17363,1.46554 -0.81567,0.74728 -0.85286,0.78167 -3.09077,1.63608 -0.9182,0.22636 -1.93969,0.37604 -2.90008,0.57102 l 102.30745,-0.005 c 8.72755,-0.57238 17.63564,-0.62602 25.98756,-2.27996 8.13389,-1.48411 15.035,-3.59187 21.98109,-5.68751 1.78358,-0.89129 3.78377,-1.44465 3.9672,-2.86442 -0.25812,-2.01284 -1.22521,-2.72214 -2.53938,-3.66955 -6.25733,-3.59909 -12.47385,-7.22489 -19.82618,-10.09912 -0.12299,-0.11064 -0.18373,-0.15181 -0.30489,-0.26045 l -0.19792,0.0693 -2.67219,-0.84129 -4.01164,0.13901 -8.56847,2.11666 -6.82801,-0.88625 -0.1757,-7.297745 15.75356,1.264005 0.20774,-0.11472 c -7.25193,-5.887164 -10.22235,-6.793586 -15.15515,-8.269264 -6.8364,-2.169541 -15.20444,-2.510687 -23.45179,-2.995683 z"
       style="display:inline;fill:none;stroke:#000000;stroke-width:0.464"
       id="path44"
       inkscape:label="cockpit Outer" /><g
       id="g50"
       inkscape:label="cockpit detail"
       transform="translate(9.255118,10.161222)"><path
         style="fill:none;stroke:#000000;stroke-width:0.464"
         d="m 329.77814,89.86925 2.07278,7.773953"
         id="path50" /><path
         style="display:inline;fill:none;stroke:#000000;stroke-width:0.464"
         d="m 335.12712,90.364071 4.87368,5.149762 -0.0445,5.3e-4 v 0"
         id="path49" /><path
         style="display:inline;fill:none;stroke:#000000;stroke-width:0.464"
         d="m 340.74645,91.491481 3.93472,3.274317 -4.11618,0.21704 -3.109,-3.106703 -0.28949,-0.738634 z"
         id="path48"
         sodipodi:nodetypes="cccccc" /><path
         style="display:inline;fill:none;stroke:#000000;stroke-width:0.464"
         d="m 334.68484,90.867446 c 0,0.349512 3.5628,3.652136 3.5628,3.652136 l -0.0903,0.843304 -5.55137,1.342556 -1.6032,-5.2077 0.22537,-0.73972 z"
         id="path47"
         sodipodi:nodetypes="ccccccc" /><path
         style="display:inline;fill:none;stroke:#000000;stroke-width:0.464"
         d="m 329.36288,90.507925 -2.85435,-0.168296 -1.19674,0.775102 0.15111,4.917709 5.00099,0.646347 0.27748,-0.770801 z"
         id="path46"
         sodipodi:nodetypes="ccccccc" /></g><g
       id="g78"
       inkscape:label="windows"
       transform="translate(9.255118,10.161222)"><path
         style="fill:none;stroke:#000000;stroke-width:0.464"
         d="m 113.50191,92.667258 1.58547,0.01522 c 0.56489,0.145598 0.52465,0.507205 0.57548,0.836302 l 0.0414,2.538659 c -0.10308,0.387537 -0.37256,0.59323 -0.7329,0.699617 l -1.3843,0.02 c -0.38602,-0.0946 -0.6109,-0.305837 -0.66949,-0.637405 l -0.0135,-2.763977 c 0.11811,-0.306498 0.21485,-0.631513 0.59787,-0.708414 z"
         id="path51"
         sodipodi:nodetypes="ccccccccc"
         inkscape:label="window" /><path
         style="fill:none;stroke:#000000;stroke-width:0.464"
         d="m 120.14112,92.762852 1.58547,0.01522 c 0.56489,0.145598 0.52465,0.507205 0.57548,0.836302 l 0.0414,2.538659 c -0.10308,0.387537 -0.37256,0.59323 -0.7329,0.699617 l -1.3843,0.02 c -0.38602,-0.0946 -0.6109,-0.305837 -0.66949,-0.637405 l -0.0135,-2.763977 c 0.11811,-0.306498 0.21485,-0.631513 0.59787,-0.708414 z"
         id="path52"
         sodipodi:nodetypes="ccccccccc"
         inkscape:label="window" /><path
         style="fill:none;stroke:#000000;stroke-width:0.464"
         d="m 126.55453,92.684415 1.58547,0.01522 c 0.56489,0.145598 0.52465,0.507205 0.57548,0.836302 l 0.0414,2.538659 c -0.10308,0.387537 -0.37256,0.59323 -0.7329,0.699617 l -1.3843,0.02 c -0.38602,-0.0946 -0.6109,-0.305837 -0.66949,-0.637405 l -0.0135,-2.763977 c 0.11811,-0.306498 0.21485,-0.631513 0.59787,-0.708414 z"
         id="path53"
         sodipodi:nodetypes="ccccccccc"
         inkscape:label="window" /><path
         style="fill:none;stroke:#000000;stroke-width:0.464"
         d="m 133.02895,92.799229 1.58547,0.01522 c 0.56489,0.145598 0.52465,0.507205 0.57548,0.836302 l 0.0414,2.538659 c -0.10308,0.387537 -0.37256,0.59323 -0.7329,0.699617 l -1.3843,0.02 c -0.38602,-0.0946 -0.6109,-0.305837 -0.66949,-0.637405 l -0.0135,-2.763977 c 0.11811,-0.306498 0.21485,-0.631513 0.59787,-0.708414 z"
         id="path54"
         sodipodi:nodetypes="ccccccccc"
         inkscape:label="window" /><path
         style="fill:none;stroke:#000000;stroke-width:0.464"
         d="m 139.51982,92.825304 1.58547,0.01522 c 0.56489,0.145598 0.52465,0.507205 0.57548,0.836302 l 0.0414,2.538659 c -0.10308,0.387537 -0.37256,0.59323 -0.7329,0.699617 l -1.3843,0.02 c -0.38602,-0.0946 -0.6109,-0.305837 -0.66949,-0.637405 l -0.0135,-2.763977 c 0.11811,-0.306498 0.21485,-0.631513 0.59787,-0.708414 z"
         id="path55"
         sodipodi:nodetypes="ccccccccc"
         inkscape:label="window" /><path
         style="fill:none;stroke:#000000;stroke-width:0.464"
         d="m 146.13824,92.699195 1.58547,0.01522 c 0.56489,0.145598 0.52465,0.507205 0.57548,0.836302 l 0.0414,2.538659 c -0.10308,0.387537 -0.37256,0.59323 -0.7329,0.699617 l -1.3843,0.02 c -0.38602,-0.0946 -0.6109,-0.305837 -0.66949,-0.637405 l -0.0135,-2.763977 c 0.11811,-0.306498 0.21485,-0.631513 0.59787,-0.708414 z"
         id="path56"
         sodipodi:nodetypes="ccccccccc"
         inkscape:label="window" /><path
         style="fill:none;stroke:#000000;stroke-width:0.464"
         d="m 152.59101,92.703899 1.58547,0.01522 c 0.56489,0.145598 0.52465,0.507205 0.57548,0.836302 l 0.0414,2.538659 c -0.10308,0.387537 -0.37256,0.59323 -0.7329,0.699617 l -1.3843,0.02 c -0.38602,-0.0946 -0.6109,-0.305837 -0.66949,-0.637405 l -0.0135,-2.763977 c 0.11811,-0.306498 0.21485,-0.631513 0.59787,-0.708414 z"
         id="path57"
         sodipodi:nodetypes="ccccccccc"
         inkscape:label="window" /><path
         style="fill:none;stroke:#000000;stroke-width:0.464"
         d="m 159.01581,92.768165 1.58547,0.01522 c 0.56489,0.145598 0.52465,0.507205 0.57548,0.836302 l 0.0414,2.538659 c -0.10308,0.387537 -0.37256,0.59323 -0.7329,0.699617 l -1.3843,0.02 c -0.38602,-0.0946 -0.6109,-0.305837 -0.66949,-0.637405 l -0.0135,-2.763977 c 0.11811,-0.306498 0.21485,-0.631513 0.59787,-0.708414 z"
         id="path58"
         sodipodi:nodetypes="ccccccccc"
         inkscape:label="window" /><path
         style="fill:none;stroke:#000000;stroke-width:0.464"
         d="m 166.09872,92.689116 1.58547,0.01522 c 0.56489,0.145598 0.52465,0.507205 0.57548,0.836302 l 0.0414,2.538659 c -0.10308,0.387537 -0.37256,0.59323 -0.7329,0.699617 l -1.3843,0.02 c -0.38602,-0.0946 -0.6109,-0.305837 -0.66949,-0.637405 l -0.0135,-2.763977 c 0.11811,-0.306498 0.21485,-0.631513 0.59787,-0.708414 z"
         id="path59"
         sodipodi:nodetypes="ccccccccc"
         inkscape:label="window" /><path
         style="fill:none;stroke:#000000;stroke-width:0.464"
         d="m 173.23945,92.689116 1.58547,0.01522 c 0.56489,0.145598 0.52465,0.507205 0.57548,0.836302 l 0.0414,2.538659 c -0.10308,0.387537 -0.37256,0.59323 -0.7329,0.699617 l -1.3843,0.02 c -0.38602,-0.0946 -0.6109,-0.305837 -0.66949,-0.637405 l -0.0135,-2.763977 c 0.11811,-0.306498 0.21485,-0.631513 0.59787,-0.708414 z"
         id="path60"
         sodipodi:nodetypes="ccccccccc"
         inkscape:label="window" /><path
         style="fill:none;stroke:#000000;stroke-width:0.464"
         d="m 179.68192,92.765476 1.58547,0.01522 c 0.56489,0.145598 0.52465,0.507205 0.57548,0.836302 l 0.0414,2.538659 c -0.10308,0.387537 -0.37256,0.59323 -0.7329,0.699617 l -1.3843,0.02 c -0.38602,-0.0946 -0.6109,-0.305837 -0.66949,-0.637405 l -0.0135,-2.763977 c 0.11811,-0.306498 0.21485,-0.631513 0.59787,-0.708414 z"
         id="path61"
         sodipodi:nodetypes="ccccccccc"
         inkscape:label="window" /><path
         style="fill:none;stroke:#000000;stroke-width:0.464"
         d="m 186.19569,92.750565 1.58547,0.01522 c 0.56489,0.145598 0.52465,0.507205 0.57548,0.836302 l 0.0414,2.538659 c -0.10308,0.387537 -0.37256,0.59323 -0.7329,0.699617 l -1.3843,0.02 c -0.38602,-0.0946 -0.6109,-0.305837 -0.66949,-0.637405 l -0.0135,-2.763977 c 0.11811,-0.306498 0.21485,-0.631513 0.59787,-0.708414 z"
         id="path62"
         sodipodi:nodetypes="ccccccccc"
         inkscape:label="window" /><path
         style="fill:none;stroke:#000000;stroke-width:0.464"
         d="m 192.82527,92.731356 1.58547,0.01522 c 0.56489,0.145598 0.52465,0.507205 0.57548,0.836302 l 0.0414,2.538659 c -0.10308,0.387537 -0.37256,0.59323 -0.7329,0.699617 l -1.3843,0.02 c -0.38602,-0.0946 -0.6109,-0.305837 -0.66949,-0.637405 l -0.0135,-2.763977 c 0.11811,-0.306498 0.21485,-0.631513 0.59787,-0.708414 z"
         id="path63"
         sodipodi:nodetypes="ccccccccc"
         inkscape:label="window" /><path
         style="fill:none;stroke:#000000;stroke-width:0.464"
         d="m 199.26434,92.731356 1.58547,0.01522 c 0.56489,0.145598 0.52465,0.507205 0.57548,0.836302 l 0.0414,2.538659 c -0.10308,0.387537 -0.37256,0.59323 -0.7329,0.699617 l -1.3843,0.02 c -0.38602,-0.0946 -0.6109,-0.305837 -0.66949,-0.637405 l -0.0135,-2.763977 c 0.11811,-0.306498 0.21485,-0.631513 0.59787,-0.708414 z"
         id="path64"
         sodipodi:nodetypes="ccccccccc"
         inkscape:label="window" /><path
         style="fill:none;stroke:#000000;stroke-width:0.464"
         d="m 205.73195,92.727791 1.58547,0.01522 c 0.56489,0.145598 0.52465,0.507205 0.57548,0.836302 l 0.0414,2.538659 c -0.10308,0.387537 -0.37256,0.59323 -0.7329,0.699617 l -1.3843,0.02 c -0.38602,-0.0946 -0.6109,-0.305837 -0.66949,-0.637405 l -0.0135,-2.763977 c 0.11811,-0.306498 0.21485,-0.631513 0.59787,-0.708414 z"
         id="path65"
         sodipodi:nodetypes="ccccccccc"
         inkscape:label="window" /><path
         style="fill:none;stroke:#000000;stroke-width:0.464"
         d="m 212.16327,92.762506 1.58547,0.01522 c 0.56489,0.145598 0.52465,0.507205 0.57548,0.836302 l 0.0414,2.538659 c -0.10308,0.387537 -0.37256,0.59323 -0.7329,0.699617 l -1.3843,0.02 c -0.38602,-0.0946 -0.6109,-0.305837 -0.66949,-0.637405 l -0.0135,-2.763977 c 0.11811,-0.306498 0.21485,-0.631513 0.59787,-0.708414 z"
         id="path66"
         sodipodi:nodetypes="ccccccccc"
         inkscape:label="window" /><path
         style="fill:none;stroke:#000000;stroke-width:0.464"
         d="m 218.57336,92.703877 1.58547,0.01522 c 0.56489,0.145598 0.52465,0.507205 0.57548,0.836302 l 0.0414,2.538659 c -0.10308,0.387537 -0.37256,0.59323 -0.7329,0.699617 l -1.3843,0.02 c -0.38602,-0.0946 -0.6109,-0.305837 -0.66949,-0.637405 l -0.0135,-2.763977 c 0.11811,-0.306498 0.21485,-0.631513 0.59787,-0.708414 z"
         id="path67"
         sodipodi:nodetypes="ccccccccc"
         inkscape:label="window" /><path
         style="fill:none;stroke:#000000;stroke-width:0.464"
         d="m 225.00203,92.703877 1.58547,0.01522 c 0.56489,0.145598 0.52465,0.507205 0.57548,0.836302 l 0.0414,2.538659 c -0.10308,0.387537 -0.37256,0.59323 -0.7329,0.699617 l -1.3843,0.02 c -0.38602,-0.0946 -0.6109,-0.305837 -0.66949,-0.637405 l -0.0135,-2.763977 c 0.11811,-0.306498 0.21485,-0.631513 0.59787,-0.708414 z"
         id="path68"
         sodipodi:nodetypes="ccccccccc"
         inkscape:label="window" /><path
         style="fill:none;stroke:#000000;stroke-width:0.464"
         d="m 237.86855,92.710515 1.58547,0.01522 c 0.56489,0.145598 0.52465,0.507205 0.57548,0.836302 l 0.0414,2.538659 c -0.10308,0.387537 -0.37256,0.59323 -0.7329,0.699617 l -1.3843,0.02 c -0.38602,-0.0946 -0.6109,-0.305837 -0.66949,-0.637405 l -0.0135,-2.763977 c 0.11811,-0.306498 0.21485,-0.631513 0.59787,-0.708414 z"
         id="path69"
         sodipodi:nodetypes="ccccccccc"
         inkscape:label="window" /><path
         style="fill:none;stroke:#000000;stroke-width:0.464"
         d="m 244.35813,92.732343 1.58547,0.01522 c 0.56489,0.145598 0.52465,0.507205 0.57548,0.836302 l 0.0414,2.538659 c -0.10308,0.387537 -0.37256,0.59323 -0.7329,0.699617 l -1.3843,0.02 c -0.38602,-0.0946 -0.6109,-0.305837 -0.66949,-0.637405 l -0.0135,-2.763977 c 0.11811,-0.306498 0.21485,-0.631513 0.59787,-0.708414 z"
         id="path70"
         sodipodi:nodetypes="ccccccccc"
         inkscape:label="window" /><path
         style="fill:none;stroke:#000000;stroke-width:0.464"
         d="m 250.81516,92.721933 1.58547,0.01522 c 0.56489,0.145598 0.52465,0.507205 0.57548,0.836302 l 0.0414,2.538659 c -0.10308,0.387537 -0.37256,0.59323 -0.7329,0.699617 l -1.3843,0.02 c -0.38602,-0.0946 -0.6109,-0.305837 -0.66949,-0.637405 l -0.0135,-2.763977 c 0.11811,-0.306498 0.21485,-0.631513 0.59787,-0.708414 z"
         id="path71"
         sodipodi:nodetypes="ccccccccc"
         inkscape:label="window" /><path
         style="fill:none;stroke:#000000;stroke-width:0.464"
         d="m 257.25416,92.753551 1.58547,0.01522 c 0.56489,0.145598 0.52465,0.507205 0.57548,0.836302 l 0.0414,2.538659 c -0.10308,0.387537 -0.37256,0.59323 -0.7329,0.699617 l -1.3843,0.02 c -0.38602,-0.0946 -0.6109,-0.305837 -0.66949,-0.637405 l -0.0135,-2.763977 c 0.11811,-0.306498 0.21485,-0.631513 0.59787,-0.708414 z"
         id="path72"
         sodipodi:nodetypes="ccccccccc"
         inkscape:label="window" /><path
         style="fill:none;stroke:#000000;stroke-width:0.464"
         d="m 263.71483,92.749721 1.58547,0.01522 c 0.56489,0.145598 0.52465,0.507205 0.57548,0.836302 l 0.0414,2.538659 c -0.10308,0.387537 -0.37256,0.59323 -0.7329,0.699617 l -1.3843,0.02 c -0.38602,-0.0946 -0.6109,-0.305837 -0.66949,-0.637405 l -0.0135,-2.763977 c 0.11811,-0.306498 0.21485,-0.631513 0.59787,-0.708414 z"
         id="path73"
         sodipodi:nodetypes="ccccccccc"
         inkscape:label="window" /><path
         style="fill:none;stroke:#000000;stroke-width:0.464"
         d="m 270.87466,92.749721 1.58547,0.01522 c 0.56489,0.145598 0.52465,0.507205 0.57548,0.836302 l 0.0414,2.538659 c -0.10308,0.387537 -0.37256,0.59323 -0.7329,0.699617 l -1.3843,0.02 c -0.38602,-0.0946 -0.6109,-0.305837 -0.66949,-0.637405 l -0.0135,-2.763977 c 0.11811,-0.306498 0.21485,-0.631513 0.59787,-0.708414 z"
         id="path74"
         sodipodi:nodetypes="ccccccccc"
         inkscape:label="window" /><path
         style="fill:none;stroke:#000000;stroke-width:0.464"
         d="m 278.00113,92.765866 1.58547,0.01522 c 0.56489,0.145598 0.52465,0.507205 0.57548,0.836302 l 0.0414,2.538659 c -0.10308,0.387537 -0.37256,0.59323 -0.7329,0.699617 l -1.3843,0.02 c -0.38602,-0.0946 -0.6109,-0.305837 -0.66949,-0.637405 l -0.0135,-2.763977 c 0.11811,-0.306498 0.21485,-0.631513 0.59787,-0.708414 z"
         id="path75"
         sodipodi:nodetypes="ccccccccc"
         inkscape:label="window" /><path
         style="fill:none;stroke:#000000;stroke-width:0.464"
         d="m 284.644,92.70055 1.58547,0.01522 c 0.56489,0.145598 0.52465,0.507205 0.57548,0.836302 l 0.0414,2.538659 c -0.10308,0.387537 -0.37256,0.59323 -0.7329,0.699617 l -1.3843,0.02 c -0.38602,-0.0946 -0.6109,-0.305837 -0.66949,-0.637405 l -0.0135,-2.763977 c 0.11811,-0.306498 0.21485,-0.631513 0.59787,-0.708414 z"
         id="path76"
         sodipodi:nodetypes="ccccccccc"
         inkscape:label="window" /><path
         style="fill:none;stroke:#000000;stroke-width:0.464"
         d="m 291.10243,92.68918 1.58547,0.01522 c 0.56489,0.145598 0.52465,0.507205 0.57548,0.836302 l 0.0414,2.538659 c -0.10308,0.387537 -0.37256,0.59323 -0.7329,0.699617 l -1.3843,0.02 c -0.38602,-0.0946 -0.6109,-0.305837 -0.66949,-0.637405 l -0.0135,-2.763977 c 0.11811,-0.306498 0.21485,-0.631513 0.59787,-0.708414 z"
         id="path77"
         sodipodi:nodetypes="ccccccccc"
         inkscape:label="window" /><path
         style="fill:none;stroke:#000000;stroke-width:0.464"
         d="m 297.5155,92.706202 1.58547,0.01522 c 0.56489,0.145598 0.52465,0.507205 0.57548,0.836302 l 0.0414,2.538659 c -0.10308,0.387537 -0.37256,0.59323 -0.7329,0.699617 l -1.3843,0.02 c -0.38602,-0.0946 -0.6109,-0.305837 -0.66949,-0.637405 l -0.0135,-2.763977 c 0.11811,-0.306498 0.21485,-0.631513 0.59787,-0.708414 z"
         id="path78"
         sodipodi:nodetypes="ccccccccc"
         inkscape:label="window" /></g><g
       id="g81"
       inkscape:label="TailFin"
       transform="translate(9.255118,10.161222)"><path
         style="display:inline;fill:none;stroke:#000000;stroke-width:0.464"
         d="M 7.8129174,34.289568 C 16.25752,33.177478 25.287121,32.547148 34.738648,32.264286 40.245774,32.795834 48.37045,31.891714 50.171863,34.455764 49.612421,36.76627 41.136292,35.99263 35.484487,36.319277 26.24383,36.344607 17.032969,35.805245 7.8585705,34.574855 7.6361107,34.556902 7.6304408,34.305149 7.8129174,34.289568 Z"
         id="path79"
         sodipodi:nodetypes="cccccc" /><path
         style="fill:none;stroke:#000000;stroke-width:0.464"
         d="m 19.018178,33.148119 c -1.542059,1.788771 0.135283,2.293647 0.281946,2.624182 l -8.99e-4,-0.0058"
         id="path80"
         sodipodi:nodetypes="ccc" /><path
         style="fill:none;stroke:#000000;stroke-width:0.464"
         d="m 22.251578,32.936447 c -1.116008,0.962604 -1.432561,1.947217 0.416668,2.991453"
         id="path81"
         sodipodi:nodetypes="cc" /></g><path
       d="m 111.68091,87.607141 c -2.97117,-0.598065 -7.66068,-2.32794 -11.14919,-4.144967 -4.618867,-2.325945 -9.049979,-4.966131 -12.550141,-9.164815 L 68.998241,51.120479 62.824458,44.086283 60.569815,45.90271 81.884277,73.273132 c 8.329642,9.573259 21.432213,14.676059 27.040213,14.487488 z"
       style="display:inline;fill:none;stroke:#000000;stroke-width:0.464"
       id="path86"
       inkscape:label="tailLeadingEdge"
       sodipodi:nodetypes="ccccccccc" /><path
       style="fill:none;stroke:#000000;stroke-width:0.464"
       d="m 141.11634,120.23108 -0.30425,6.19166 c 0.24133,0.81068 0.83692,1.02263 1.50097,1.11889 l 8.48142,0.77247 c 0.35113,-0.0239 0.70392,-0.0433 0.82054,-0.71572 l -0.16132,-7.69566 c 0.0711,-0.59357 -0.27244,-0.52084 -0.55895,-0.53971 l -9.09146,-0.0601 c -0.33023,0.0825 -0.6372,0.21719 -0.68695,0.92817 z"
       id="path90"
       sodipodi:nodetypes="ccccccccc"
       inkscape:label="rearHold" /><path
       style="fill:none;stroke:#000000;stroke-width:0.464"
       d="m 194.70367,116.57056 c 0.33743,0 28.2631,0.0196 28.2631,0.0196 3.21674,-0.0218 3.24938,2.82489 0.0523,2.85698 l -28.23204,-0.15298 c -2.65296,-4.6e-4 -2.78825,-2.586 -0.0834,-2.72361 z"
       id="path91"
       sodipodi:nodetypes="ccccc" /><path
       style="display:inline;fill:none;stroke:#000000;stroke-width:0.464"
       d="m 233.15917,125.84879 4.13889,0.0342 c 0.68477,-0.0233 0.73014,0.34902 0.78479,0.71561 l 0.0139,2.59276 c -0.1316,0.25601 0.18073,0.65452 -0.52859,0.72507 l -4.30341,-0.0202 c -0.47091,0.0667 -0.80799,-0.11662 -0.85702,-0.83785 l 0.0638,-2.36065 c -0.14597,-0.54578 0.0322,-0.86453 0.68764,-0.84894 z"
       id="path92"
       sodipodi:nodetypes="ccccccccc" /><path
       style="display:inline;fill:none;stroke:#000000;stroke-width:0.464"
       d="m 335.5124,125.26034 2.25523,-1.84573 3.08216,0.0314 c 0.50566,0.0922 0.69326,0.38297 0.72948,0.76834 l 0.0554,3.54582 c -0.0383,0.41398 -0.006,0.55435 -0.48439,0.56239 l -4.78243,0.3009 c -0.3971,0.0273 -0.75928,-0.0375 -0.8517,-0.3296 z"
       id="path93"
       sodipodi:nodetypes="ccccccccc" /><path
       style="display:inline;fill:none;stroke:#000000;stroke-width:0.464"
       d="m 359.65886,116.20516 0.0106,2.40657 7.22993,0.0182 c 0.2854,0.007 0.47688,-0.081 0.43754,-0.40245 l -0.003,-1.56969 c -0.009,-0.30818 -0.14099,-0.47185 -0.41026,-0.47347 z"
       id="path94"
       sodipodi:nodetypes="ccccccc" /><path
       style="fill:none;stroke:#000000;stroke-width:0.464"
       d="m 215.02655,87.174249 -0.94734,-2.678428 -2.01224,-0.01146 0.007,-0.477679 3.37103,0.02016 1.29256,3.277547 z"
       id="path95"
       sodipodi:nodetypes="ccccccc" /></g></svg>
