<svg xmlns="http://www.w3.org/2000/svg" width="400" height="400" viewBox="0 0 400 400" fill="none">
    <g>
        <path d="M289.507,209.408A90,90,0,0,1,277.942,245.000" stroke="rgba(0,0,0,.6)" stroke-width="10" />
        <path d="M289.507,190.592A90,90,0,0,0,277.942,155.000" stroke="rgba(0,0,0,.6)" stroke-width="10" />
        <path d="M277.145,246.353A90,90,0,0,1,263.640,263.640" stroke="rgba(0,0,0,.4)" stroke-width="10" />
        <path d="M277.145,153.647A90,90,0,0,0,263.640,136.360" stroke="rgba(0,0,0,.4)" stroke-width="10" />
        <path d="M262.519,264.741A90,90,0,0,1,251.622,273.724" stroke="rgba(0,0,0,.2)" stroke-width="10" />
        <path d="M262.519,135.259A90,90,0,0,0,251.622,126.276" stroke="rgba(0,0,0,.2)" stroke-width="10" />
    </g>
    <g transform="rotate(180 200 200)">
        <path d="M289.507,209.408A90,90,0,0,1,277.942,245.000" stroke="rgba(0,0,0,.6)" stroke-width="10" />
        <path d="M289.507,190.592A90,90,0,0,0,277.942,155.000" stroke="rgba(0,0,0,.6)" stroke-width="10" />
        <path d="M277.145,246.353A90,90,0,0,1,263.640,263.640" stroke="rgba(0,0,0,.4)" stroke-width="10" />
        <path d="M277.145,153.647A90,90,0,0,0,263.640,136.360" stroke="rgba(0,0,0,.4)" stroke-width="10" />
        <path d="M262.519,264.741A90,90,0,0,1,251.622,273.724" stroke="rgba(0,0,0,.2)" stroke-width="10" />
        <path d="M262.519,135.259A90,90,0,0,0,251.622,126.276" stroke="rgba(0,0,0,.2)" stroke-width="10" />
    </g>
</svg>