<svg xmlns="http://www.w3.org/2000/svg" width="400" height="400" viewBox="0 0 400 400" fill="none">
    <g>
        <path d="M329.288,213.589A130,130,0,0,1,312.583,265.000" stroke="rgba(0,0,0,.6)" stroke-width="15" />
        <path d="M329.288,186.411A130,130,0,0,0,312.583,135.000" stroke="rgba(0,0,0,.6)" stroke-width="15" />
        <path d="M311.432,266.955A130,130,0,0,1,291.924,291.924" stroke="rgba(0,0,0,.4)" stroke-width="15" />
        <path d="M311.432,133.045A130,130,0,0,0,291.924,108.076" stroke="rgba(0,0,0,.4)" stroke-width="15" />
        <path d="M290.306,293.514A130,130,0,0,1,274.565,306.490" stroke="rgba(0,0,0,.2)" stroke-width="15" />
        <path d="M290.306,106.486A130,130,0,0,0,274.565,93.510" stroke="rgba(0,0,0,.2)" stroke-width="15" />
    </g>
    <g transform="rotate(180 200 200)">
        <path d="M329.288,213.589A130,130,0,0,1,312.583,265.000" stroke="rgba(0,0,0,.6)" stroke-width="15" />
        <path d="M329.288,186.411A130,130,0,0,0,312.583,135.000" stroke="rgba(0,0,0,.6)" stroke-width="15" />
        <path d="M311.432,266.955A130,130,0,0,1,291.924,291.924" stroke="rgba(0,0,0,.4)" stroke-width="15" />
        <path d="M311.432,133.045A130,130,0,0,0,291.924,108.076" stroke="rgba(0,0,0,.4)" stroke-width="15" />
        <path d="M290.306,293.514A130,130,0,0,1,274.565,306.490" stroke="rgba(0,0,0,.2)" stroke-width="15" />
        <path d="M290.306,106.486A130,130,0,0,0,274.565,93.510" stroke="rgba(0,0,0,.2)" stroke-width="15" />
    </g>
</svg>